<?xml version="1.0"?>
<svg xmlns="http://www.w3.org/2000/svg" xmlns:xlink="http://www.w3.org/1999/xlink" version="1.1" id="Capa_1" x="0px" y="0px" viewBox="0 0 409.598 409.598" style="enable-background:new 0 0 409.598 409.598;" xml:space="preserve" width="100" height="100" class=""><g><g><g>
	<path style="fill:#2E8BE8" d="M381.969,327.679H27.631c-11.489,0-20.804-9.315-20.804-20.804V157.337   c0-11.489,9.315-20.804,20.804-20.804h354.338c11.489,0,20.804,9.315,20.804,20.804v149.54   C402.773,318.364,393.458,327.679,381.969,327.679z" data-original="#2E8BE8" class="" data-old_color="#00E7FF"/>
	<path style="fill:#2E8BE8" d="M381.967,334.506H27.633C12.394,334.506,0,322.112,0,306.873V157.34   c0-15.241,12.394-27.634,27.633-27.634h354.333c15.241,0,27.633,12.394,27.633,27.633v149.533   C409.6,322.112,397.206,334.506,381.967,334.506z M27.633,143.359c-7.707,0-13.979,6.274-13.979,13.979v149.533   c0,7.707,6.274,13.979,13.979,13.979h354.333c7.707,0,13.979-6.274,13.979-13.979V157.338c0-7.707-6.274-13.979-13.979-13.979   H27.633z" data-original="#2E8BE8" class="" data-old_color="#00E7FF"/>
</g><path style="fill:#FFFFFF;" d="M249.986,170.666h131.985c11.489,0,20.804,9.315,20.804,20.804v149.54  c0,11.489-9.315,20.804-20.804,20.804H27.631c-11.489-0.002-20.804-9.317-20.804-20.806V191.47c0-11.489,9.315-20.804,20.804-20.804  H204.8" data-original="#FFFFFF" class=""/><path style="fill:#00175D" d="M381.967,368.639H27.633C12.394,368.639,0,356.245,0,341.007V191.474  c0-15.241,12.394-27.634,27.633-27.634H204.8c3.773,0,6.827,3.053,6.827,6.827s-3.053,6.827-6.827,6.827H27.633  c-7.707,0-13.979,6.274-13.979,13.979v149.533c0,7.707,6.274,13.979,13.979,13.979h354.333c7.707,0,13.979-6.274,13.979-13.979  V191.472c0-7.707-6.274-13.979-13.979-13.979h-131.98c-3.773,0-6.827-3.053-6.827-6.827s3.053-6.827,6.827-6.827h131.98  c15.241,0,27.633,12.394,27.633,27.633v149.533C409.6,356.245,397.206,368.639,381.967,368.639z" data-original="#00175D" class="active-path" data-old_color="#602F75"/><path style="fill:#00175D" d="M204.8,177.493c-3.773,0-6.827-3.053-6.827-6.827V47.786c0-3.773,3.053-6.827,6.827-6.827  s6.827,3.053,6.827,6.827v122.88C211.627,174.439,208.573,177.493,204.8,177.493z" data-original="#00175D" class="active-path" data-old_color="#602F75"/><rect x="95.573" y="300.372" style="fill:#2E8BE8" width="170.667" height="27.307" data-original="#2E8BE8" class="" data-old_color="#EA3457"/><path style="fill:#00175D" d="M266.24,334.506H95.573c-3.773,0-6.827-3.053-6.827-6.827v-27.307c0-3.773,3.053-6.827,6.827-6.827  H266.24c3.773,0,6.827,3.053,6.827,6.827v27.307C273.067,331.453,270.013,334.506,266.24,334.506z M102.4,320.853h157.013v-13.653  H102.4V320.853z" data-original="#00175D" class="active-path" data-old_color="#602F75"/><rect x="47.787" y="300.372" style="fill:#2E8BE8" width="27.307" height="27.307" data-original="#2E8BE8" class="" data-old_color="#FFE600"/><path style="fill:#00175D" d="M75.093,334.506H47.787c-3.773,0-6.827-3.053-6.827-6.827v-27.307c0-3.773,3.053-6.827,6.827-6.827  h27.307c3.773,0,6.827,3.053,6.827,6.827v27.307C81.92,331.453,78.867,334.506,75.093,334.506z M54.613,320.853h13.653v-13.653  H54.613V320.853z" data-original="#00175D" class="active-path" data-old_color="#602F75"/><rect x="47.787" y="252.586" style="fill:#2E8BE8" width="27.307" height="27.307" data-original="#2E8BE8" class="" data-old_color="#FFE600"/><path style="fill:#00175D" d="M75.093,286.719H47.787c-3.773,0-6.827-3.053-6.827-6.827v-27.307c0-3.773,3.053-6.827,6.827-6.827  h27.307c3.773,0,6.827,3.053,6.827,6.827v27.307C81.92,283.666,78.867,286.719,75.093,286.719z M54.613,273.066h13.653v-13.653  H54.613V273.066z" data-original="#00175D" class="active-path" data-old_color="#602F75"/><rect x="95.573" y="252.586" style="fill:#2E8BE8" width="27.307" height="27.307" data-original="#2E8BE8" class="" data-old_color="#FFE600"/><path style="fill:#00175D" d="M122.88,286.719H95.573c-3.773,0-6.827-3.053-6.827-6.827v-27.307c0-3.773,3.053-6.827,6.827-6.827  h27.307c3.773,0,6.827,3.053,6.827,6.827v27.307C129.707,283.666,126.653,286.719,122.88,286.719z M102.4,273.066h13.653v-13.653  H102.4V273.066z" data-original="#00175D" class="active-path" data-old_color="#602F75"/><rect x="143.36" y="252.586" style="fill:#2E8BE8" width="27.307" height="27.307" data-original="#2E8BE8" class="" data-old_color="#FFE600"/><path style="fill:#00175D" d="M170.667,286.719H143.36c-3.773,0-6.827-3.053-6.827-6.827v-27.307c0-3.773,3.053-6.827,6.827-6.827  h27.307c3.773,0,6.827,3.053,6.827,6.827v27.307C177.493,283.666,174.44,286.719,170.667,286.719z M150.187,273.066h13.653v-13.653  h-13.653V273.066z" data-original="#00175D" class="active-path" data-old_color="#602F75"/><rect x="191.147" y="252.586" style="fill:#2E8BE8" width="27.307" height="27.307" data-original="#2E8BE8" class="" data-old_color="#FFE600"/><path style="fill:#00175D" d="M218.453,286.719h-27.307c-3.773,0-6.827-3.053-6.827-6.827v-27.307c0-3.773,3.053-6.827,6.827-6.827  h27.307c3.773,0,6.827,3.053,6.827,6.827v27.307C225.28,283.666,222.227,286.719,218.453,286.719z M197.973,273.066h13.653v-13.653  h-13.653V273.066z" data-original="#00175D" class="active-path" data-old_color="#602F75"/><rect x="238.933" y="252.586" style="fill:#2E8BE8" width="27.307" height="27.307" data-original="#2E8BE8" class="" data-old_color="#FFE600"/><path style="fill:#00175D" d="M266.24,286.719h-27.307c-3.773,0-6.827-3.053-6.827-6.827v-27.307c0-3.773,3.053-6.827,6.827-6.827  h27.307c3.773,0,6.827,3.053,6.827,6.827v27.307C273.067,283.666,270.013,286.719,266.24,286.719z M245.76,273.066h13.653v-13.653  H245.76V273.066z" data-original="#00175D" class="active-path" data-old_color="#602F75"/><rect x="286.72" y="252.586" style="fill:#2E8BE8" width="27.307" height="27.307" data-original="#2E8BE8" class="" data-old_color="#FFE600"/><path style="fill:#00175D" d="M314.027,286.719H286.72c-3.773,0-6.827-3.053-6.827-6.827v-27.307c0-3.773,3.053-6.827,6.827-6.827  h27.307c3.773,0,6.827,3.053,6.827,6.827v27.307C320.853,283.666,317.8,286.719,314.027,286.719z M293.547,273.066H307.2v-13.653  h-13.653V273.066z" data-original="#00175D" class="active-path" data-old_color="#602F75"/><rect x="286.72" y="300.372" style="fill:#2E8BE8" width="27.307" height="27.307" data-original="#2E8BE8" class="" data-old_color="#FFE600"/><path style="fill:#00175D" d="M314.027,334.506H286.72c-3.773,0-6.827-3.053-6.827-6.827v-27.307c0-3.773,3.053-6.827,6.827-6.827  h27.307c3.773,0,6.827,3.053,6.827,6.827v27.307C320.853,331.453,317.8,334.506,314.027,334.506z M293.547,320.853H307.2v-13.653  h-13.653V320.853z" data-original="#00175D" class="active-path" data-old_color="#602F75"/><rect x="47.787" y="204.799" style="fill:#2E8BE8" width="27.307" height="27.307" data-original="#2E8BE8" class="" data-old_color="#FFE600"/><path style="fill:#00175D" d="M75.093,238.933H47.787c-3.773,0-6.827-3.053-6.827-6.827v-27.307c0-3.773,3.053-6.827,6.827-6.827  h27.307c3.773,0,6.827,3.053,6.827,6.827v27.307C81.92,235.879,78.867,238.933,75.093,238.933z M54.613,225.279h13.653v-13.653  H54.613V225.279z" data-original="#00175D" class="active-path" data-old_color="#602F75"/><rect x="334.507" y="252.586" style="fill:#2E8BE8" width="27.307" height="27.307" data-original="#2E8BE8" class="" data-old_color="#FFE600"/><path style="fill:#00175D" d="M361.813,286.719h-27.307c-3.773,0-6.827-3.053-6.827-6.827v-27.307c0-3.773,3.053-6.827,6.827-6.827  h27.307c3.773,0,6.827,3.053,6.827,6.827v27.307C368.64,283.666,365.587,286.719,361.813,286.719z M341.333,273.066h13.653v-13.653  h-13.653V273.066z" data-original="#00175D" class="active-path" data-old_color="#602F75"/><rect x="95.573" y="204.799" style="fill:#2E8BE8" width="27.307" height="27.307" data-original="#2E8BE8" class="" data-old_color="#FFE600"/><path style="fill:#00175D" d="M122.88,238.933H95.573c-3.773,0-6.827-3.053-6.827-6.827v-27.307c0-3.773,3.053-6.827,6.827-6.827  h27.307c3.773,0,6.827,3.053,6.827,6.827v27.307C129.707,235.879,126.653,238.933,122.88,238.933z M102.4,225.279h13.653v-13.653  H102.4V225.279z" data-original="#00175D" class="active-path" data-old_color="#602F75"/><rect x="143.36" y="204.799" style="fill:#2E8BE8" width="27.307" height="27.307" data-original="#2E8BE8" class="" data-old_color="#FFE600"/><path style="fill:#00175D" d="M170.667,238.933H143.36c-3.773,0-6.827-3.053-6.827-6.827v-27.307c0-3.773,3.053-6.827,6.827-6.827  h27.307c3.773,0,6.827,3.053,6.827,6.827v27.307C177.493,235.879,174.44,238.933,170.667,238.933z M150.187,225.279h13.653v-13.653  h-13.653V225.279z" data-original="#00175D" class="active-path" data-old_color="#602F75"/><rect x="191.147" y="204.799" style="fill:#2E8BE8" width="27.307" height="27.307" data-original="#2E8BE8" class="" data-old_color="#FFE600"/><path style="fill:#00175D" d="M218.453,238.933h-27.307c-3.773,0-6.827-3.053-6.827-6.827v-27.307c0-3.773,3.053-6.827,6.827-6.827  h27.307c3.773,0,6.827,3.053,6.827,6.827v27.307C225.28,235.879,222.227,238.933,218.453,238.933z M197.973,225.279h13.653v-13.653  h-13.653V225.279z" data-original="#00175D" class="active-path" data-old_color="#602F75"/><rect x="238.933" y="204.799" style="fill:#2E8BE8" width="27.307" height="27.307" data-original="#2E8BE8" class="" data-old_color="#FFE600"/><path style="fill:#00175D" d="M266.24,238.933h-27.307c-3.773,0-6.827-3.053-6.827-6.827v-27.307c0-3.773,3.053-6.827,6.827-6.827  h27.307c3.773,0,6.827,3.053,6.827,6.827v27.307C273.067,235.879,270.013,238.933,266.24,238.933z M245.76,225.279h13.653v-13.653  H245.76V225.279z" data-original="#00175D" class="active-path" data-old_color="#602F75"/><rect x="286.72" y="204.799" style="fill:#2E8BE8" width="27.307" height="27.307" data-original="#2E8BE8" class="" data-old_color="#FFE600"/><path style="fill:#00175D" d="M314.027,238.933H286.72c-3.773,0-6.827-3.053-6.827-6.827v-27.307c0-3.773,3.053-6.827,6.827-6.827  h27.307c3.773,0,6.827,3.053,6.827,6.827v27.307C320.853,235.879,317.8,238.933,314.027,238.933z M293.547,225.279H307.2v-13.653  h-13.653V225.279z" data-original="#00175D" class="active-path" data-old_color="#602F75"/><rect x="334.507" y="204.799" style="fill:#2E8BE8" width="27.307" height="27.307" data-original="#2E8BE8" class="" data-old_color="#FFE600"/><path style="fill:#00175D" d="M361.813,238.933h-27.307c-3.773,0-6.827-3.053-6.827-6.827v-27.307c0-3.773,3.053-6.827,6.827-6.827  h27.307c3.773,0,6.827,3.053,6.827,6.827v27.307C368.64,235.879,365.587,238.933,361.813,238.933z M341.333,225.279h13.653v-13.653  h-13.653V225.279z" data-original="#00175D" class="active-path" data-old_color="#602F75"/><rect x="334.507" y="300.372" style="fill:#2E8BE8" width="27.307" height="27.307" data-original="#2E8BE8" class="" data-old_color="#FFE600"/><path style="fill:#00175D" d="M361.813,334.506h-27.307c-3.773,0-6.827-3.053-6.827-6.827v-27.307c0-3.773,3.053-6.827,6.827-6.827  h27.307c3.773,0,6.827,3.053,6.827,6.827v27.307C368.64,331.453,365.587,334.506,361.813,334.506z M341.333,320.853h13.653v-13.653  h-13.653V320.853z" data-original="#00175D" class="active-path" data-old_color="#602F75"/></g></g> </svg>
