<?xml version="1.0"?>
<svg xmlns="http://www.w3.org/2000/svg" xmlns:xlink="http://www.w3.org/1999/xlink" version="1.1" id="Layer_1" x="0px" y="0px" viewBox="0 0 512 512" style="enable-background:new 0 0 512 512;" xml:space="preserve" width="70" height="70" class=""><g><g>
	<g>
		<path d="M405.333,277.333c0-15.938,4.042-34.865,8.729-56.781c5.917-27.635,12.604-58.958,12.604-92.552    C426.667,66.125,381.833,0,256,0S85.333,66.125,85.333,128c0,33.594,6.688,64.917,12.604,92.552    c4.688,21.917,8.729,40.844,8.729,56.781c0,18.521-2.688,36.042-5.313,52.99C98.729,347.458,96,365.177,96,384    c0,80.146,59.812,128,160,128s160-47.854,160-128c0-18.823-2.729-36.542-5.354-53.677    C408.021,313.375,405.333,295.854,405.333,277.333z M245.333,21.622v24.322c-6.259,3.724-10.667,10.262-10.667,18.056v42.667    c0,7.794,4.408,14.332,10.667,18.056V256h-37.625c-12.208,0-23.167-6.781-28.625-17.688l-41.542-83.083    c-6.813-13.634-17.615-25.004-30.568-33.008C110.035,61.508,161.013,24.501,245.333,21.622z M389.562,333.573    c2.625,17.094,5.104,33.24,5.104,50.427c0,67.792-50.542,106.667-138.667,106.667S117.333,451.792,117.333,384    c0-17.188,2.479-33.333,5.104-50.427c2.75-17.74,5.563-36.083,5.563-56.24c0-18.198-4.479-39.104-9.208-61.24    c-4.358-20.387-9.096-42.878-11.102-66.368c4.303,4.447,7.991,9.492,10.768,15.046L160,247.854    c9.104,18.188,27.375,29.479,47.708,29.479h96.583c20.333,0,38.604-11.292,47.708-29.479l41.542-83.083    c2.777-5.553,6.465-10.599,10.768-15.046c-2.005,23.491-6.744,45.982-11.102,66.368c-4.729,22.135-9.208,43.042-9.208,61.24    C384,297.49,386.812,315.833,389.562,333.573z M374.458,155.229l-41.542,83.083C327.458,249.219,316.5,256,304.292,256h-37.625    V124.723c6.259-3.724,10.667-10.262,10.667-18.056V64c0-7.794-4.408-14.332-10.667-18.056V21.622    c84.32,2.879,135.298,39.885,138.359,100.599C392.073,130.225,381.271,141.595,374.458,155.229z" data-original="#000000" class="active-path" data-old_color="#000000" fill="#00175D"/>
	</g>
</g></g> </svg>
